<?xml version="1.0" ?><svg viewBox="0 0 60 60" xmlns="http://www.w3.org/2000/svg"><defs><style>.cls-1{fill:none;}.cls-2{fill:#AAFFAA;}</style></defs><title/><g data-name="Layer 2" id="Layer_2"><g id="Icons"><g id="Airplane"><rect class="cls-1" height="60" width="60"/><path class="cls-2" d="M54.29,25.76H41.94a11.53,11.53,0,0,0-8.16-8.15l-.25-2L36.7,15a2.67,2.67,0,0,0,1.9-1.42,2.34,2.34,0,0,0-2.09-3.38H32.87l0-.13a2.87,2.87,0,0,0-5.7,0l0,.14H23.49a2.34,2.34,0,0,0-2.09,3.38A2.67,2.67,0,0,0,23.3,15l3.17.58-.25,2a11.53,11.53,0,0,0-8.16,8.15H5.71a2.38,2.38,0,0,0-.15,4.75l2.14.13a3.28,3.28,0,0,0-.39,1.53,3.34,3.34,0,0,0,6.68,0A3.3,3.3,0,0,0,13.76,31l4.15.25C19,37.15,24.12,41.76,30,41.76s11-4.6,12.09-10.51L46.23,31A3.52,3.52,0,0,0,46,32.17a3.34,3.34,0,1,0,6.68,0,3.28,3.28,0,0,0-.39-1.53l2.14-.13a2.38,2.38,0,0,0-.15-4.75ZM10.65,33.51A1.34,1.34,0,1,1,12,32.17,1.34,1.34,0,0,1,10.65,33.51Zm38.7,0a1.34,1.34,0,1,1,1.34-1.34A1.34,1.34,0,0,1,49.35,33.51ZM36.51,12.24a.31.31,0,0,1,.28.16.33.33,0,0,1,0,.33.64.64,0,0,1-.47.34l-3.05.56-.17-1.39Zm-12.85.83a.64.64,0,0,1-.47-.34.33.33,0,0,1,0-.33.31.31,0,0,1,.28-.16h3.39l-.17,1.39Zm5.47-2.73a.88.88,0,0,1,1.74,0l.85,6.86a13.5,13.5,0,0,0-3.44,0ZM5.68,28.51a.37.37,0,0,1-.35-.37.38.38,0,0,1,.38-.38h12c0,.33,0,.66,0,1,0,.16,0,.31,0,.46ZM30,39.76c-5.5,0-10.33-5.14-10.33-11,0-5.51,4.44-9.66,10.33-9.66s10.33,4.15,10.33,9.66C40.33,34.62,35.5,39.76,30,39.76ZM54.32,28.51l-12,.72c0-.15,0-.31,0-.47,0-.34,0-.67,0-1h12a.38.38,0,0,1,.38.38A.37.37,0,0,1,54.32,28.51Z"/><path class="cls-2" d="M34.39,23.44H25.61a2.4,2.4,0,0,0-1.89.91,8.05,8.05,0,0,0-1.54,3,2.45,2.45,0,0,0,.43,2.13,2.38,2.38,0,0,0,1.91.94h11a2.38,2.38,0,0,0,1.91-.94,2.45,2.45,0,0,0,.43-2.13,8.05,8.05,0,0,0-1.54-3A2.4,2.4,0,0,0,34.39,23.44Zm-3,2v3H28.64v-3Zm-7.17,2.83a.43.43,0,0,1-.07-.4,6.18,6.18,0,0,1,1.15-2.27.46.46,0,0,1,.34-.16h1v3H24.52A.42.42,0,0,1,24.19,28.27Zm11.62,0a.42.42,0,0,1-.33.16H33.36v-3h1a.46.46,0,0,1,.34.16,6.14,6.14,0,0,1,1.15,2.28A.42.42,0,0,1,35.81,28.27Z"/><path class="cls-2" d="M51.33,40.43A10.93,10.93,0,0,0,42,45.67a6.22,6.22,0,0,0-2.63-.57,6.34,6.34,0,0,0-6.25,5.33h-.3a1,1,0,0,0,0,2H34a1,1,0,0,0,1-1,4.34,4.34,0,0,1,6.79-3.57h0a4.38,4.38,0,0,1,1.3,1.41,1,1,0,0,0,.87.5,1,1,0,0,0,.5-.14,1,1,0,0,0,.36-1.36,6.41,6.41,0,0,0-1.18-1.47,8.94,8.94,0,0,1,7.69-4.37,1,1,0,0,0,0-2Z"/><path class="cls-2" d="M28.67,50.43H26.91a6.33,6.33,0,0,0-6.24-5.33,6.22,6.22,0,0,0-2.63.57,10.93,10.93,0,0,0-9.37-5.24,1,1,0,0,0,0,2,8.94,8.94,0,0,1,7.69,4.37,6.41,6.41,0,0,0-1.18,1.47,1,1,0,0,0,.36,1.36,1,1,0,0,0,.5.14,1,1,0,0,0,.87-.5,4.38,4.38,0,0,1,1.3-1.41h0a4.33,4.33,0,0,1,6.66,2.57h-.2a1,1,0,1,0,0,2h4a1,1,0,0,0,0-2Z"/></g></g></g></svg>